<svg width="25" height="24" viewBox="0 0 25 24" fill="none" xmlns="http://www.w3.org/2000/svg">
<path fill-rule="evenodd" clip-rule="evenodd" d="M25 12C25 18.6274 19.4036 24 12.5 24C5.59644 24 0 18.6274 0 12C0 5.37258 5.59644 0 12.5 0C19.4036 0 25 5.37258 25 12ZM12.9479 8.85893C11.7321 9.3444 9.30223 10.3492 5.65822 11.8733C5.06649 12.0992 4.75652 12.3202 4.7283 12.5363C4.68061 12.9015 5.15699 13.0453 5.8057 13.2411C5.89394 13.2678 5.98537 13.2954 6.0791 13.3246C6.71733 13.5238 7.57586 13.7568 8.02217 13.766C8.42702 13.7744 8.87888 13.6142 9.37775 13.2853C12.7825 11.079 14.54 9.96381 14.6503 9.93977C14.7282 9.92281 14.836 9.90148 14.9091 9.96385C14.9822 10.0262 14.975 10.1443 14.9673 10.176C14.9201 10.3691 13.0501 12.0381 12.0824 12.9018C11.7807 13.171 11.5667 13.362 11.523 13.4056C11.425 13.5033 11.3251 13.5958 11.2291 13.6846C10.6362 14.2333 10.1916 14.6448 11.2538 15.3168C11.7642 15.6397 12.1727 15.9067 12.5802 16.1731C13.0252 16.4641 13.4691 16.7543 14.0433 17.1157C14.1897 17.2077 14.3294 17.3034 14.4655 17.3965C14.9834 17.751 15.4487 18.0694 16.0235 18.0186C16.3575 17.9891 16.7026 17.6876 16.8778 16.7884C17.2919 14.6631 18.1059 10.0585 18.294 8.16097C18.3105 7.99473 18.2897 7.78197 18.2731 7.68857C18.2564 7.59518 18.2216 7.46211 18.0952 7.3636C17.9454 7.24694 17.7142 7.22234 17.6108 7.22408C17.1406 7.23203 16.4193 7.47282 12.9479 8.85893Z" fill="white"/>
</svg>
