<svg width="80" height="80" viewBox="0 0 80 80" fill="none" xmlns="http://www.w3.org/2000/svg">
<g clip-path="url(#clip0_17_412)">
<path d="M50.3971 25.3047L39.9278 35.6989L29.4585 25.3047C23.6823 19.5699 23.6823 10.2509 29.4585 4.30108C35.2346 -1.43369 44.6209 -1.43369 50.3971 4.30108C56.1733 10.2509 56.1733 19.5699 50.3971 25.3047Z" fill="#B4C59A"/>
<path d="M29.4585 54.6955L39.9278 44.3013L50.3971 54.6955C56.1733 60.4303 56.1733 69.7493 50.3971 75.6991C44.6209 81.4339 35.2346 81.4339 29.4585 75.6991C23.6823 69.7493 23.6823 60.4303 29.4585 54.6955Z" fill="#626E64"/>
<path d="M54.7293 50.5377L44.2599 40L54.7293 29.6058C60.5054 23.871 69.8917 23.871 75.6679 29.6058C81.4441 35.3405 81.4441 44.6595 75.6679 50.6093C69.8917 56.2724 60.5054 56.2724 54.7293 50.5377Z" fill="#83947C"/>
<path d="M25.2708 29.6057L35.7401 39.9999L25.2708 50.3942C19.4946 56.129 10.1083 56.129 4.33213 50.3942C-1.44404 44.6594 -1.44404 35.3405 4.33213 29.3906C9.9639 23.8709 19.4946 23.8709 25.2708 29.6057Z" fill="#DEF1CB"/>
</g>
<defs>
<clipPath id="clip0_17_412">
<rect width="80" height="80" fill="white"/>
</clipPath>
</defs>
</svg>
