<svg width="40" height="40" viewBox="0 0 40 40" fill="none" xmlns="http://www.w3.org/2000/svg">
<g clip-path="url(#clip0_17_379)">
<path d="M26.6667 5H1.66667V26.6667H26.6667V5Z" stroke="#526940" stroke-width="3" stroke-linecap="round" stroke-linejoin="round"/>
<path d="M26.6667 13.3335H33.3333L38.3333 18.3335V26.6668H26.6667V13.3335Z" stroke="#526940" stroke-width="3" stroke-linecap="round" stroke-linejoin="round"/>
<path d="M9.16667 34.9998C11.4679 34.9998 13.3333 33.1344 13.3333 30.8332C13.3333 28.532 11.4679 26.6665 9.16667 26.6665C6.86548 26.6665 5 28.532 5 30.8332C5 33.1344 6.86548 34.9998 9.16667 34.9998Z" stroke="#526940" stroke-width="3" stroke-linecap="round" stroke-linejoin="round"/>
<path d="M30.8333 34.9998C33.1345 34.9998 35 33.1344 35 30.8332C35 28.532 33.1345 26.6665 30.8333 26.6665C28.5321 26.6665 26.6667 28.532 26.6667 30.8332C26.6667 33.1344 28.5321 34.9998 30.8333 34.9998Z" stroke="#526940" stroke-width="3" stroke-linecap="round" stroke-linejoin="round"/>
</g>
<defs>
<clipPath id="clip0_17_379">
<rect width="40" height="40" fill="white"/>
</clipPath>
</defs>
</svg>
